<svg width="13" height="14" viewBox="0 0 13 14" xmlns="http://www.w3.org/2000/svg"><title>Icon / Calendar</title><g fill="#A5A4AB" fill-rule="evenodd"><path d="M11.977 2.086c-.552 0-1-.44-1-.993A.999.999 0 0 0 9.974.1h-.957a.996.996 0 0 0-1.004.993.997.997 0 0 1-1.006.993h-1.01a1.002 1.002 0 0 1-1.006-.99v.045c0-.547-.45-.99-1.004-.99h-.958a1 1 0 0 0-1.004.99v-.045c0 .547-.45.99-1 .99H1C.448 2.086 0 2.538 0 3.081v9.924c0 .55.447.995.999.995H12c.552 0 .999-.452.999-.995V3.08a.998.998 0 0 0-1-.995h-.023zM1 5v8h11V5H1zm8-4v3h1V1H9zM3 1v3h1V1H3z"/><path d="M9 11H7v2H6v-2H4v2H3v-2H1v-1h2V8H1V7h2V5h1v2h2V5h1v2h2V5h1v2h2v1h-2v2h2v1h-2v2H9v-2zm0-1H7V8h2v2zM6 8H4v2h2V8z"/></g></svg>