<svg xmlns="http://www.w3.org/2000/svg" width="400" height="79.5" viewBox="0 0 400 79.5"><g fill="#FFF"><path d="M349.4 15.9v20.2c0 .5 1 1.5 1.8.6.3-.3 8.6-11.2 13.8-18.1 7.2 4.1 12.2 11.9 12.2 20.8 0 13-10.7 23.6-23.8 23.6-13 0-23.6-10.6-23.6-23.6 0-7.5 3.6-14.3 9.1-18.7V5.1c-13.3 5.7-22.5 18.9-22.5 34.3 0 20.7 16.4 37.1 37.1 37.1 20.7 0 37.2-16.4 37.2-37.1S374.1 2.1 353.4 2.1c-1.4 0-2.7.1-4.1.2v13.6M126.3 37.3c5.5 0 10.2-4.8 10.2-10.5 0-5.5-4.8-10-10.2-10h-16.8v20.5h16.8zm-30.4-31c0-1 .8-2 2-2h29.5c12.4 0 22.5 9.9 22.5 22.2 0 9.5-6.3 17.2-15.3 20.9l14.1 26.2c.7 1.3 0 3-1.8 3h-10.8c-.9 0-1.4-.5-1.7-.9l-13.7-27.4h-11.5v26.3c0 1-.9 2-2 2h-9.5c-1.1 0-2-.9-2-2V6.3M200.1 51.9l-10.3-22.7h-.3l-10.1 22.7h20.7zm-44.6 22l32.1-69.5c.3-.6.8-1.1 1.8-1.1h1c1 0 1.4.5 1.8 1.1L224 73.9c.6 1.3-.2 2.7-1.8 2.7h-9c-1.5 0-2.3-.6-3-2.1l-5.1-11.2h-30.9l-5.1 11.2c-.4 1-1.3 2.1-3 2.1h-9c-1.4 0-2.2-1.3-1.6-2.7M245 3.3c.8 0 1.3.4 1.8 1L269.5 53h.3l22.7-48.7c.7-1.3 2.1-1 3.4-1 1.1 0 1.8.7 1.9 1.5L310 74.2c.3 1.4-.5 2.4-1.9 2.4h-9.4c-.9 0-1.8-.8-2-1.5L290.6 36h-.3l-18.1 40.6c-.4.7-.1.3-1.1 1H268c-1-.7-.7-.3-1.1-1L248.6 36h-.3l-6 39.1c-.1.7-.9 1.5-1.9 1.5h-9.3c-1.3 0-2.2-.9-2-2.4l12.3-69.4c.1-.8.7-1.5 1.9-1.5h1.7zM46.3 3.3c15.8.5 27.7 8.3 34.4 22.5H65c-4.9-6-11.1-8.6-18.7-9.1-10.2.3-19.5 6.8-22.5 16.7-.9 2.8-1.4 6.4-.9 9.4 1.9 12.7 10.7 20.7 23.5 21.3 8.8 0 16.6-4.9 20.8-12.2-7-5.1-17.9-13.4-18.2-13.7-.9-.9 0-1.8.6-1.8h33.8c1.6 14.9-6 29.7-19.2 36.8-5.9 3.2-12.3 4.4-18.9 4.4-15.7-.4-29.7-10.9-34.3-26-1.6-5.1-1.5-8.3-1.5-13.3.5-12.7 8.1-24.5 19.2-30.5 5.8-3.1 7.6-3 13.9-4.2l3.7-.3z"/></g></svg>