<svg xmlns="http://www.w3.org/2000/svg" viewBox="0 0 64 66"><title>Logo Echo</title><path fill="#504F56" d="M2.3 46.9h9.8v1.8H4.5v5.4H11V56H4.5v6.2h7.9V64H2.3V46.9zM22.6 46.6c2.1 0 3.7 1 4.7 2.1l-1.2 1.4c-.9-1-2-1.6-3.4-1.6-3.2 0-5.4 2.7-5.4 6.9 0 4.3 2.1 7 5.3 7 1.6 0 2.8-.7 3.9-1.9l1.2 1.3c-1.4 1.6-3 2.5-5.2 2.5-4.3 0-7.5-3.3-7.5-8.8.1-5.5 3.3-8.9 7.6-8.9zM30.9 46.9H33v7.2h8v-7.2h2.2V64H41v-8h-8v8h-2.2V46.9zM46.9 55.4c0-5.5 3-8.8 7.3-8.8s7.3 3.3 7.3 8.8c0 5.5-3 8.9-7.3 8.9s-7.3-3.4-7.3-8.9zm12.3 0c0-4.2-2-6.9-5-6.9s-5 2.6-5 6.9c0 4.3 2 7 5 7s5-2.7 5-7z"/><g><path fill="#504F56" d="M27 32c-.6 0-1-.4-1-1V6c0-.6.4-1 1-1s1 .4 1 1v25c0 .6-.4 1-1 1zM31 36c-.6 0-1-.4-1-1V1c0-.6.4-1 1-1s1 .4 1 1v34c0 .6-.4 1-1 1zM35 31c-.6 0-1-.4-1-1V5c0-.6.4-1 1-1s1 .4 1 1v25c0 .6-.4 1-1 1zM39 26.9c-.6 0-1-.4-1-1V12c0-.6.4-1 1-1s1 .4 1 1v13.9c0 .6-.4 1-1 1zM23 26.9c-.6 0-1-.4-1-1V12c0-.6.4-1 1-1s1 .4 1 1v13.9c0 .6-.4 1-1 1zM43 25.1c-.6 0-1-.4-1-1V13c0-.6.4-1 1-1s1 .4 1 1v11.1c0 .6-.4 1-1 1zM19 25.1c-.6 0-1-.4-1-1V13c0-.6.4-1 1-1s1 .4 1 1v11.1c0 .6-.4 1-1 1zM15 20.8c-.6 0-1-.4-1-1V17c0-.6.4-1 1-1s1 .4 1 1v2.8c0 .5-.4 1-1 1zM47 20.8c-.6 0-1-.4-1-1V17c0-.6.4-1 1-1s1 .4 1 1v2.8c0 .5-.4 1-1 1z"/></g></svg>