<?xml version="1.0" standalone="no"?>
<!DOCTYPE svg PUBLIC "-//W3C//DTD SVG 1.1//EN" "http://www.w3.org/Graphics/SVG/1.1/DTD/svg11.dtd" >
<svg xmlns="http://www.w3.org/2000/svg">
<metadata>Generated by IcoMoon</metadata>
<defs>
<font id="icomoon" horiz-adv-x="1024">
<font-face units-per-em="1024" ascent="960" descent="-64" />
<missing-glyph horiz-adv-x="1024" />
<glyph unicode="&#x20;" horiz-adv-x="512" d="" />
<glyph unicode="&#xe900;" glyph-name="calendar" d="M659.2 448v115.2h57.6v-115.2h121.6v-57.6h-121.6v-108.8h121.6v-57.6h-121.6v-108.8h-57.6v108.8h-115.2v-108.8h-64v108.8h-115.2v-108.8h-57.6v108.8h-121.6v57.6h121.6v115.2h-121.6v51.2h121.6v115.2h57.6v-115.2h115.2v115.2h57.6v-115.2h121.6zM659.2 396.8h-115.2v-108.8h115.2v108.8zM480 288v108.8h-115.2v-108.8h115.2zM838.4 723.2h-6.4c32 0 64-25.6 64-64v-531.2c0-38.4-25.6-64-64-64h-640c-32 0-64 25.6-64 64v531.2c0 38.4 25.6 64 64 64h-6.4c32 0 64 25.6 64 64v-19.2c0 32 25.6 64 64 64h44.8c38.4 0 64-25.6 64-64v19.2c0-32 32-64 64-64h51.2c38.4 0 64 25.6 64 64v-19.2c0 32 25.6 64 64 64h44.8c38.4 0 64-25.6 64-64v19.2c0-38.4 32-64 64-64zM185.6 563.2v-441.6h652.8v441.6h-652.8zM659.2 780.8v-166.4h57.6v166.4h-57.6zM307.2 780.8v-166.4h57.6v166.4h-57.6z" />
<glyph unicode="&#xe901;" glyph-name="account" d="M153.6 671.247v-225.28h328.533v330.411h-224c-57.643 0-104.533-47.159-104.533-105.131v0zM302.933 656.228c0 8.29 6.69 15.019 14.933 15.019s14.933-6.728 14.933-15.019v-60.075h59.733c8.243 0 14.933-6.728 14.933-15.019s-6.69-15.019-14.933-15.019h-59.733v-60.075c0-8.29-6.69-15.019-14.933-15.019s-14.933 6.728-14.933 15.019v60.075h-59.733c-8.243 0-14.933 6.728-14.933 15.019s6.69 15.019 14.933 15.019h59.733v60.075zM512 55.467h253.867c57.643 0 104.533 47.159 104.533 105.131v255.317h-358.4v-360.448zM601.6 295.765h149.333c8.243 0 14.933-6.728 14.933-15.019 0-8.26-6.69-15.019-14.933-15.019h-149.333c-8.243 0-14.933 6.758-14.933 15.019 0 8.29 6.69 15.019 14.933 15.019v0zM601.6 235.691h149.333c8.243 0 14.933-6.728 14.933-15.019 0-8.26-6.69-15.019-14.933-15.019h-149.333c-8.243 0-14.933 6.758-14.933 15.019 0 8.29 6.69 15.019 14.933 15.019zM765.867 776.363h-253.867v-330.411h358.4v225.28c0 57.972-46.891 105.131-104.533 105.131zM750.933 566.101h-149.333c-8.243 0-14.933 6.728-14.933 15.019s6.69 15.019 14.933 15.019h149.333c8.243 0 14.933-6.728 14.933-15.019s-6.69-15.019-14.933-15.019zM153.615 160.612c0-57.972 46.891-105.131 104.533-105.131h224v360.448h-328.533v-255.317zM262.509 300.166c-5.824 5.857-5.824 15.379 0 21.266 5.824 5.827 15.292 5.827 21.116 0l49.19-49.471 49.161 49.471c5.824 5.827 15.292 5.827 21.116 0 5.824-5.887 5.824-15.409 0-21.266l-49.19-49.441 49.19-49.441c5.824-5.887 5.824-15.409 0-21.266s-15.292-5.857-21.116 0l-49.161 49.471-49.19-49.471c-5.824-5.857-15.292-5.857-21.116 0s-5.824 15.379 0 21.266l49.19 49.441-49.19 49.441z" />
<glyph unicode="&#xe902;" glyph-name="adresse" d="M772.38 617.863l-134.395 133.58c-4.301 4.275-5.585 10.627-3.225 16.178 2.3 5.551 7.735 9.172 13.768 9.172h134.395c8.273 0 14.933-6.62 14.933-14.842v-133.58c0-8.193-6.69-14.842-14.933-14.842-3.853 0-7.675 1.514-10.543 4.334zM260.291 461.512l268.79 267.159 268.79-267.159v-337.779h-209.059v207.791h-119.462v-207.791h-209.059v337.779zM883.385 460.31c5.854-6.174 5.107-15.169-0.299-20.542-0.060-0.030-0.149-0.059-0.209-0.089-5.645-5.492-15.052-5.492-20.727 0-0.060 0.030-0.119 0.059-0.179 0.089l-332.881 330.892-332.911-330.892c-0.060-0.030-0.149-0.059-0.209-0.089-5.316-5.195-14.455-6.145-21.234 0.564-5.854 6.293-5.077 15.139 0.329 20.512l343.454 341.37c5.734 5.699 15.411 5.699 21.115 0l343.454-341.37c0.119-0.148 0.179-0.356 0.299-0.445z" />
<glyph unicode="&#xe903;" glyph-name="album-label" d="M512 433.067c8.243 0 14.933 6.69 14.933 14.933s-6.69 14.933-14.933 14.933c-8.243 0-14.933-6.69-14.933-14.933s6.69-14.933 14.933-14.933zM512 806.4c197.598 0 358.4-160.802 358.4-358.4 0-197.628-160.802-358.4-358.4-358.4-197.628 0-358.4 160.772-358.4 358.4 0 197.598 160.772 358.4 358.4 358.4zM762.372 488.081l29.508 4.689c-18.726 117.734-109.879 211.695-226.837 233.796l-5.555-29.299c104.623-19.802 186.129-103.906 202.884-209.186zM703.445 478.643l29.508 4.689c-14.754 92.915-86.733 167.134-179.081 184.606l-5.555-29.329c80.013-15.172 142.345-79.445 155.127-159.966zM644.548 469.205l29.478 4.689c-10.842 68.186-63.616 122.573-131.324 135.415l-5.555-29.359c55.373-10.453 98.53-54.985 107.401-110.746zM512 358.4c49.399 0 89.6 40.201 89.6 89.6s-40.201 89.6-89.6 89.6c-49.429 0-89.6-40.201-89.6-89.6s40.171-89.6 89.6-89.6zM512 507.733c32.943 0 59.733-26.79 59.733-59.733 0-32.973-26.79-59.733-59.733-59.733-32.913 0-59.733 26.761-59.733 59.733 0 32.943 26.82 59.733 59.733 59.733zM481.297 286.69l5.525 29.329c-55.373 10.513-98.5 55.014-107.371 110.746l-29.508-4.689c10.842-68.126 63.616-122.543 131.354-135.386zM470.097 228.062l5.555 29.329c-79.983 15.142-142.345 79.445-155.127 159.966l-29.508-4.689c14.784-92.945 86.733-167.134 179.081-184.606zM458.927 169.404l5.555 29.329c-104.623 19.831-186.129 103.876-202.884 209.186l-29.478-4.689c18.697-117.705 109.85-211.695 226.807-233.826z" />
<glyph unicode="&#xe904;" glyph-name="label-produsent" d="M765.867 418.133c8.213 0 14.933-6.69 14.933-14.933 0-172.928-140.702-313.6-313.6-313.6-172.928 0-313.6 140.672-313.6 313.6s140.672 313.6 313.6 313.6c8.213 0 14.933-6.69 14.933-14.933v-283.733h283.733zM556.8 806.4c172.898 0 313.6-140.672 313.6-313.6 0-8.213-6.72-14.933-14.933-14.933h-298.667c-8.243 0-14.933 6.72-14.933 14.933v298.667c0 8.243 6.69 14.933 14.933 14.933z" />
<glyph unicode="&#xe905;" glyph-name="ny-profil" d="M358.933 642.133c-18.995 0-38.199 3.733-65.169 20.339 18.786 82.731 82.641 143.927 158.502 143.927 79.625 0 146.167-67.319 161.101-156.292-17.054-4.241-32.316-8.034-33.271-8.243-43.307-8.363-70.246 5.764-95.723 50.385-2.718 4.749-6.511 7.108-13.261 7.526-5.466-0.119-10.423-3.196-12.962-8.034-13.769-26.432-60.151-49.609-99.217-49.609zM512 253.867c0-38.498 11.409-74.308 30.793-104.533h-374.259c-8.243 0-14.933 6.69-14.933 14.933v71.262c0 44.023 27.866 83.627 69.35 98.441l139.716 49.907v65.886c-44.89 34.705-79.326 98.112-73.86 181.261 27.298-14.545 46.741-18.756 70.127-18.756 41.037 0 86.046 19.503 111.552 46.293 23.804-33.152 51.878-48.832 87.539-48.832 8.751 0 33.092 1.613 58.18 10.394 3.136-70.396-29.449-135.654-74.338-170.359v-65.886l15.501-5.525c-28.284-33.749-45.367-77.146-45.367-124.484zM706.133 418.133c90.586 0 164.267-73.711 164.267-164.267 0-90.586-73.681-164.267-164.267-164.267s-164.267 73.681-164.267 164.267c0 90.556 73.681 164.267 164.267 164.267zM780.8 238.933c8.243 0 14.933 6.69 14.933 14.933s-6.69 14.933-14.933 14.933h-59.733v59.733c0 8.243-6.69 14.933-14.933 14.933s-14.933-6.69-14.933-14.933v-59.733h-59.733c-8.243 0-14.933-6.69-14.933-14.933s6.69-14.933 14.933-14.933h59.733v-59.733c0-8.243 6.69-14.933 14.933-14.933s14.933 6.69 14.933 14.933v59.733h59.733z" />
<glyph unicode="&#xe906;" glyph-name="utover-artist" d="M753.771 226.15c-31.509 18.697-154.291 63.198-167.104 67.947v55.194c14.993 9.229 41.335 33.062 44.501 87.659 11.529 6.75 18.816 21.713 18.816 40.917 0 17.263-5.884 31.151-15.531 38.647 7.258 22.609 20.339 64.034 11.499 99.366-10.364 41.425-66.543 56.119-111.552 56.119-40.081 0-89.062-11.678-106.594-43.486-21.026 1.015-32.704-8.183-38.528-15.859-18.965-25.028-6.451-70.724 0.597-95.902-9.796-7.437-15.829-21.414-15.829-38.886 0-19.204 7.258-34.167 18.816-40.917 3.136-54.596 29.508-78.43 44.471-87.659v-55.223c-11.499-4.271-133.325-48.533-166.746-68.335-56.060 60.838-87.121 139.179-87.121 222.268 0 181.141 147.392 328.533 328.533 328.533 181.171 0 328.533-147.392 328.533-328.533 0-82.91-30.912-161.101-86.763-221.85zM512 806.4c-197.598 0-358.4-160.802-358.4-358.4 0-94.976 36.796-184.486 103.607-252.015l0.030-0.030c67.887-68.604 158.353-106.355 254.763-106.355 96.589 0 187.204 37.901 255.121 106.714 66.603 67.529 103.279 156.89 103.279 251.686 0 197.598-160.772 358.4-358.4 358.4z" />
<glyph unicode="&#xe907;" glyph-name="innspilling" d="M420.978 641.137v-357.283h-75.852c-58.558 0-106.193-47.396-106.193-105.66s47.635-105.66 106.193-105.66c56.585 0 106.193 49.389 106.193 105.66v337.026l303.407 123.502v-234.113h-75.852c-58.558 0-106.193-47.396-106.193-105.66s47.635-105.66 106.193-105.66c56.585 0 106.193 49.389 106.193 105.66v490.385l-364.089-148.196z" />
<glyph unicode="&#xe908;" glyph-name="arrow-back" d="M225.792 520.375l127.659 128.128c16.64 16.725 43.648 16.768 60.331 0.171 16.725-16.64 16.768-43.691 0.128-60.331l-55.125-55.381 302.891 0.384c90.752 0 144.427-59.477 144.597-152.235 0.128-65.835-34.688-188.629-101.76-188.715h-0.043c-48.384 0-59.179 68.053-13.44 83.2 15.573 19.115 42.155 95.275 24.064 142.421-5.675 14.805-16.512 29.995-53.419 29.995h-302.592l55.211-55.339c16.725-16.64 16.768-43.691 0.128-60.331-16.597-16.683-43.52-16.853-60.331-0.171l-128.299 127.787c-17.195 17.579-16.043 44.373 0 60.416z" />
<glyph unicode="&#xe909;" glyph-name="carret_down" d="M512 240l320 400h-640z" />
<glyph unicode="&#xe90a;" glyph-name="checkmark" d="M954.531 680.393l-130.667 128c-7.28 7.131-19.115 7.131-26.395 0l-453.488-444.197-117.451 115.054c-7.28 7.131-19.115 7.131-26.395 0l-130.667-128c-7.28-7.131-7.28-18.725 0-25.856l261.333-256c7.28-7.168 19.115-7.168 26.395 0l597.333 585.143c7.28 7.131 7.28 18.725 0 25.856z" />
<glyph unicode="&#xe90b;" glyph-name="close" d="M612.546 447.991l198.602 198.679c27.803 27.733 27.803 72.674 0 100.477s-72.743 27.804-100.546 0l-198.602-198.608-198.602 198.608c-27.803 27.804-72.743 27.804-100.546 0s-27.803-72.745 0-100.477l198.602-198.679-198.602-198.608c-27.803-27.804-27.803-72.745 0-100.477 13.866-13.937 32.069-20.906 50.273-20.906s36.407 6.969 50.273 20.906l198.602 198.537 198.602-198.537c13.866-13.937 32.069-20.906 50.273-20.906s36.407 6.969 50.273 20.906c27.803 27.733 27.803 72.674 0 100.477l-198.602 198.608z" />
<glyph unicode="&#xe90c;" glyph-name="down" d="M239.178 683.246c-23.884 26.056-64.369 27.816-90.424 3.931s-27.816-64.369-3.931-90.424l320-349.091c25.366-27.671 68.99-27.671 94.356 0l320 349.091c23.884 26.056 22.124 66.54-3.931 90.424s-66.54 22.124-90.424-3.931l-272.822-297.624-272.822 297.624z" />
<glyph unicode="&#xe90d;" glyph-name="Info" d="M531.478 429.885v-98.755c0-10.791-8.765-19.478-19.478-19.478-10.752 0-19.478 8.687-19.478 19.478v116.87c0 10.752 8.726 19.478 19.478 19.478 53.682 0 97.391 43.67 97.391 97.391s-43.709 97.391-97.391 97.391c-53.721 0-97.391-43.67-97.391-97.391 0-10.791-8.765-19.478-19.478-19.478-10.752 0-19.478 8.687-19.478 19.478 0 75.186 61.123 136.348 136.348 136.348 75.186 0 136.348-61.162 136.348-136.348 0-68.563-50.916-125.479-116.87-134.984zM512 194.783c-21.543 0-38.957 17.414-38.957 38.957 0 21.504 17.414 38.957 38.957 38.957 21.465 0 38.957-17.453 38.957-38.957 0-21.543-17.491-38.957-38.957-38.957zM512 896c-247.452 0-448-200.587-448-448 0-247.452 200.548-448 448-448s448 200.548 448 448c0 247.413-200.548 448-448 448z" />
<glyph unicode="&#xe90e;" glyph-name="meny" d="M28.444 960h967.111c15.701 0 28.444-10.752 28.444-24v-144c0-13.248-12.743-24-28.444-24h-967.111c-15.701 0-28.444 10.752-28.444 24v144c0 13.248 12.743 24 28.444 24zM995.556 576c15.701 0 28.444-10.752 28.444-24v-144c0-13.248-12.743-24-28.444-24h-967.111c-15.701 0-28.444 10.752-28.444 24v144c0 13.248 12.743 24 28.444 24h967.111zM995.556 192c15.701 0 28.444-10.752 28.444-24v-144c0-13.248-12.743-24-28.444-24h-967.111c-15.701 0-28.444 10.752-28.444 24v144c0 13.248 12.743 24 28.444 24h967.111z" />
<glyph unicode="&#xe90f;" glyph-name="switch" d="M759.092 655.466c13.117-14.573 11.791-36.819-3.011-49.702-14.802-12.848-37.453-11.616-50.606 2.957-51.036 56.496-124.329 88.88-201.134 88.88-144.937 0-263.101-113.274-268.334-254.39l51.072 60.051c12.723 14.96 35.302 16.931 50.463 4.47 15.196-12.496 17.239-34.672 4.552-49.562l-117.053-137.456c-14.013-13.728-36.7-13.728-50.678 0l-104.294 151.395c-11.003 16.157-6.63 38.016 9.784 48.858 16.415 10.912 38.743 6.512 49.746-9.61l35.589-52.061c13.44 172.374 160.205 308.704 339.154 308.704 97.306 0 190.131-41.008 254.751-112.534zM918.132 395.042c11.039-16.157 6.666-38.016-9.748-48.858-16.415-10.912-38.743-6.512-49.746 9.61l-35.589 52.061c-13.44-172.374-160.241-308.704-339.154-308.704-97.306 0-190.167 41.008-254.787 112.534-13.117 14.573-11.791 36.819 3.011 49.702 14.802 12.918 37.489 11.616 50.642-2.957 51-56.496 124.293-88.88 201.134-88.88 144.937 0 263.101 113.274 268.298 254.39l-51.072-60.051c-12.687-14.995-35.267-16.931-50.463-4.47-15.196 12.496-17.203 34.672-4.552 49.562l117.089 137.456c13.978 13.728 36.664 13.728 50.678 0l104.259-151.395z" />
<glyph unicode="&#xe910;" glyph-name="lock" d="M526.222 366.762v-77.44c0-8.067-6.4-14.667-14.222-14.667-7.851 0-14.222 6.6-14.222 14.667v77.44c-8.476 5.075-14.222 14.432-14.222 25.227 0 16.192 12.743 29.333 28.444 29.333 15.673 0 28.444-13.141 28.444-29.333 0-10.795-5.774-20.152-14.222-25.227v0zM369.778 655.988c0 80.872 63.772 146.667 142.222 146.667 78.421 0 142.222-65.795 142.222-146.667v-88h-284.444v88zM753.778 567.988h-71.111v88c0 97.064-76.572 176-170.667 176-94.123 0-170.667-78.936-170.667-176v-88h-71.083c-7.851 0-14.222-6.541-14.222-14.667v-410.667c0-8.096 6.372-14.667 14.222-14.667h483.527c7.851 0 14.222 6.571 14.222 14.667v410.667c0 8.125-6.372 14.667-14.222 14.667v0z" />
<glyph unicode="&#xe911;" glyph-name="show" d="M512.037 612.571c-92.661 0-168-73.801-168-164.571s75.339-164.571 168-164.571c92.587 0 168 73.801 168 164.571s-75.413 164.571-168 164.571zM68.032 436.663c-5.376 6.656-5.376 16.055 0 22.674 8.101 10.021 200.629 244.663 444.005 244.663 243.339 0 435.867-234.642 443.931-244.663 5.376-6.619 5.376-16.018 0-22.674-8.064-9.984-200.592-244.663-443.931-244.663-243.376 0-435.904 234.679-444.005 244.663zM512.037 320c72.053 0 130.667 57.417 130.667 128 0 70.619-58.613 128-130.667 128-72.091 0-130.667-57.381-130.667-128 0-70.583 58.576-128 130.667-128z" />
<glyph unicode="&#xe912;" glyph-name="altok2" d="M506.121 140.732c108.812 0 205.569 61.43 246.504 156.516 9.311 21.618 34.299 31.596 55.793 22.215 21.522-9.352 31.427-34.453 22.116-56.071-54.378-126.313-181.726-207.925-324.427-207.925-145.757 0-273.856 82.024-326.351 208.977-8.999 21.732 1.259 46.69 22.923 55.744 5.32 2.217 10.839 3.269 16.272 3.269 16.64-0.014 32.431-9.907 39.209-26.323 39.294-95.001 136.631-156.402 247.961-156.402zM153.663 728.477c1.033 15.649 14.291 27.545 30.068 26.479 1.231-0.085 122.806-7.078 168.524 56.256 9.169 12.735 26.885 15.521 39.52 6.325 12.65-9.21 15.466-26.991 6.297-39.698-52.595-72.843-161.322-80.049-202.229-80.049-8.999 0-14.702 0.341-15.834 0.426-15.579 1.052-27.38 14.597-26.347 30.26zM242.099 544.188c-10.527 14.54-16.824 32.392-16.824 51.779 0 48.666 39.294 88.136 87.729 88.136 48.449 0 87.729-39.47 87.729-88.136 0-18.69-5.83-36.002-15.706-50.272-15.947 22.016-41.728 36.4-70.905 36.4-29.842-0.014-56.175-15.038-72.023-37.907zM625.941 778.365c-9.169 12.707-6.353 30.487 6.297 39.698 12.65 9.182 30.351 6.396 39.52-6.325 45.704-63.334 167.279-56.341 168.51-56.256 15.791 1.052 29.050-10.845 30.068-26.479 1.033-15.663-10.768-29.208-26.347-30.246-1.132-0.085-6.834-0.426-15.834-0.426-40.879 0-149.62 7.192-202.215 80.035zM711.038 684.629c48.435 0 87.729-39.47 87.729-88.136 0-19.373-6.297-37.224-16.81-51.779-15.848 22.869-42.181 37.892-72.037 37.892-29.177 0-54.958-14.384-70.905-36.4-9.877 14.27-15.706 31.582-15.706 50.272-0.014 48.666 39.28 88.15 87.729 88.15z" />
<glyph unicode="&#xe913;" glyph-name="NEI2" d="M823.925 179.611c8.73-20.106-0.557-43.451-20.737-52.15-20.18-8.711-43.584 0.555-52.314 20.662-38.396 88.41-129.107 145.57-231.135 145.57-104.389 0-195.657-57.107-232.488-145.477-6.355-15.242-21.175-24.455-36.765-24.482-5.095 0-10.256 0.978-15.258 3.040-20.299 8.421-29.918 31.633-21.494 51.846 49.223 118.087 169.348 194.361 306.004 194.361 133.804 0.013 253.212-75.891 304.186-193.37zM242.473 628.283l-34.297-11.012c-21.945-7.046-45.481 4.957-52.553 26.822s4.989 45.302 26.933 52.348l168.87 54.251c21.945 7.019 45.468-4.984 52.54-26.848 6.368-19.67-2.853-40.517-20.751-49.651 30.728-32.123 30.33-82.937-1.3-114.452-32.121-32.004-84.236-32.004-116.37 0.026-18.774 18.692-26.243 44.165-23.072 68.515zM868.372 646.591c-7.058-21.865-30.608-33.881-52.553-26.822l-34.297 11.012c3.171-24.35-4.299-49.823-23.046-68.515-32.161-32.030-84.276-32.030-116.37-0.026-31.63 31.515-32.028 82.342-1.3 114.452-17.911 9.121-27.119 29.981-20.751 49.651 7.072 21.865 30.595 33.881 52.54 26.848l168.883-54.251c21.905-7.033 33.978-30.47 26.893-52.348z" />
<glyph unicode="&#xe914;" glyph-name="NERD" d="M753.999 349.221c17.124-7.384 24.993-27.202 17.596-44.259-43.265-99.728-144.588-164.163-258.126-164.163-115.959 0-217.89 64.749-259.657 164.993-7.149 17.147 1.013 36.852 18.238 44.012 4.244 1.739 8.624 2.57 12.947 2.57 13.228-0.011 25.804-7.844 31.196-20.771 31.253-75.029 108.697-123.506 197.276-123.506 86.597 0 163.547 48.523 196.128 123.574 7.408 17.068 27.278 24.935 44.402 17.551zM955.733 646.025l-113.482-51.070c0.045-1.537 0.236-3.030 0.236-4.578 0-81.481-66.49-147.757-148.224-147.757-79.921 0-145.095 63.403-147.966 142.381h-68.618c-2.657-79.169-67.932-142.797-147.977-142.797-81.723 0-148.224 66.276-148.224 147.757 0 1.246 0.169 2.469 0.191 3.703l-113.403 51.014c3.186 6.666 10.763 22.084 17.338 32.745l101.965-45.874c18.069 61.271 74.912 106.158 142.145 106.158 70.712 0 129.919-49.623 144.633-115.763h75.182c14.557 66.354 73.887 116.19 144.734 116.19 66.941 0 123.603-44.494 141.931-105.361l102.044 45.908c6.305-9.931 13.814-25.024 17.495-32.655zM329.714 487.978c56.414 0 102.325 45.751 102.325 101.994s-45.911 101.994-102.325 101.994c-56.403 0-102.314-45.751-102.314-101.994s45.899-101.994 102.314-101.994zM329.714 553.996c-19.921 0-36.071 16.097-36.071 35.954s16.15 35.954 36.071 35.954c19.921 0 36.071-16.097 36.071-35.954s-16.15-35.954-36.071-35.954zM694.263 488.393c56.414 0 102.336 45.751 102.336 101.994s-45.911 101.994-102.336 101.994c-56.403 0-102.314-45.751-102.314-101.994s45.899-101.994 102.314-101.994zM692.35 553.996c-19.921 0-36.071 16.097-36.071 35.954s16.15 35.954 36.071 35.954c19.921 0 36.071-16.097 36.071-35.954s-16.15-35.954-36.071-35.954z" />
<glyph unicode="&#xe915;" glyph-name="YAY2" d="M215.676 679.348c-2.575 2.623-3.451 6.468-2.282 9.937s4.189 5.996 7.807 6.551l64.074 9.757 28.739 61.067c1.614 3.428 5.066 5.607 8.865 5.607s7.251-2.179 8.865-5.607l28.739-61.067 64.074-9.757c3.618-0.555 6.638-3.081 7.807-6.551s0.292-7.286-2.282-9.909l-46.65-47.701 11.050-67.409c0.598-3.692-0.946-7.397-4.022-9.549-1.684-1.18-3.66-1.776-5.636-1.776-1.628 0-3.257 0.402-4.732 1.207l-57.199 31.519-57.157-31.533c-3.257-1.818-7.293-1.596-10.368 0.569-3.062 2.151-4.62 5.857-4.022 9.549l11.008 67.409-46.678 47.688zM606.997 679.348c-2.575 2.623-3.451 6.454-2.282 9.923s4.189 5.996 7.821 6.551l64.074 9.757 28.739 61.067c1.6 3.428 5.052 5.607 8.865 5.607s7.251-2.179 8.865-5.607l28.739-61.067 64.074-9.757c3.632-0.555 6.652-3.081 7.821-6.551s0.292-7.286-2.282-9.909l-46.678-47.715 11.050-67.409c0.598-3.692-0.932-7.397-4.022-9.549-1.67-1.18-3.66-1.776-5.623-1.776-1.628 0-3.257 0.402-4.732 1.207l-57.199 31.519-57.171-31.519c-3.243-1.818-7.279-1.596-10.368 0.569-3.062 2.151-4.607 5.857-4.008 9.549l11.008 67.409-46.692 47.701zM867.121 351.766c3.688-5.579 4.314-12.671 1.628-18.806-59.621-137.456-199.251-226.294-355.749-226.294-159.852 0-300.331 89.269-357.864 227.377-2.575 6.134-1.879 13.157 1.823 18.695 3.716 5.51 9.937 8.841 16.589 8.841h0.028l676.899-0.833c6.708 0 12.943-3.373 16.645-8.98z" />
<glyph unicode="&#xe916;" glyph-name="altok" d="M506.121 140.732c108.812 0 205.569 61.43 246.504 156.516 9.311 21.618 34.299 31.596 55.793 22.215 21.522-9.352 31.427-34.453 22.116-56.071-54.378-126.313-181.726-207.925-324.427-207.925-145.757 0-273.856 82.024-326.351 208.977-8.999 21.732 1.259 46.69 22.923 55.744 5.32 2.217 10.839 3.269 16.272 3.269 16.64-0.014 32.431-9.907 39.209-26.323 39.294-95.001 136.631-156.402 247.961-156.402zM153.663 728.477c1.033 15.649 14.291 27.545 30.068 26.479 1.231-0.085 122.806-7.078 168.524 56.256 9.169 12.735 26.885 15.521 39.52 6.325 12.65-9.21 15.466-26.991 6.297-39.698-52.595-72.843-161.322-80.049-202.229-80.049-8.999 0-14.702 0.341-15.834 0.426-15.579 1.052-27.38 14.597-26.347 30.26zM242.099 544.188c-10.527 14.54-16.824 32.392-16.824 51.779 0 48.666 39.294 88.136 87.729 88.136 48.449 0 87.729-39.47 87.729-88.136 0-18.69-5.83-36.002-15.706-50.272-15.947 22.016-41.728 36.4-70.905 36.4-29.842-0.014-56.175-15.038-72.023-37.907zM625.941 778.365c-9.169 12.707-6.353 30.487 6.297 39.698 12.65 9.182 30.351 6.396 39.52-6.325 45.704-63.334 167.279-56.341 168.51-56.256 15.791 1.052 29.050-10.845 30.068-26.479 1.033-15.663-10.768-29.208-26.347-30.246-1.132-0.085-6.834-0.426-15.834-0.426-40.879 0-149.62 7.192-202.215 80.035zM711.038 684.629c48.435 0 87.729-39.47 87.729-88.136 0-19.373-6.297-37.224-16.81-51.779-15.848 22.869-42.181 37.892-72.037 37.892-29.177 0-54.958-14.384-70.905-36.4-9.877 14.27-15.706 31.582-15.706 50.272-0.014 48.666 39.28 88.15 87.729 88.15z" />
<glyph unicode="&#xe917;" glyph-name="language" d="M926.476 508.952c-221.867 151.162-521.752-24.381-497.371-297.448l-92.648-95.086c-14.629-14.629-36.571-4.876-36.571 14.629v151.162c-165.79 7.314-299.886 146.286-299.886 314.514 0 173.105 138.971 314.514 309.638 314.514h319.39c204.8 0 355.962-199.924 297.448-402.286v0zM746.057 521.143c153.6 0 277.943-124.343 277.943-280.381 0-153.6-124.343-280.381-277.943-280.381s-277.943 126.781-277.943 280.381 126.781 280.381 277.943 280.381v0zM936.229 177.371c4.876 12.19-2.438 24.381-12.19 26.819-12.19 4.876-21.943-2.438-26.819-12.19 0 0 0 0 0 0-21.943-60.952-78.019-99.962-141.41-99.962-53.638 0-107.276 29.257-134.095 73.143h58.514c12.19 0 21.943 9.752 21.943 21.943s-9.752 21.943-21.943 21.943c0 0 0 0 0 0h-95.086c-12.19 0-21.943-9.752-21.943-21.943 0 0 0 0 0 0v-95.086c0-12.19 9.752-21.943 21.943-21.943s21.943 9.752 21.943 21.943c0 0 0 0 0 0v24.381c36.571-39.010 92.648-65.829 148.724-65.829 80.457-2.438 153.6 48.762 180.419 126.781zM555.886 306.59c-4.876-12.19 2.438-24.381 12.19-26.819 2.438 0 4.876-2.438 7.314-2.438 9.752 0 17.067 4.876 19.505 14.629 21.943 60.952 78.019 99.962 141.41 99.962 53.638 0 107.276-29.257 134.095-73.143h-58.514c-12.19 0-21.943-9.752-21.943-21.943s9.752-21.943 21.943-21.943c0 0 0 0 0 0h95.086c12.19 0 21.943 9.752 21.943 21.943 0 0 0 0 0 0v95.086c0 12.19-9.752 21.943-21.943 21.943 0 0 0 0 0 0-12.19 0-21.943-9.752-21.943-21.943 0 0 0 0 0 0v-24.381c-36.571 39.010-92.648 65.829-148.724 65.829-80.457 2.438-153.6-51.2-180.419-126.781v0z" />
<glyph unicode="&#xe918;" glyph-name="logout" d="M353.524 850.286v-85.333c0-19.505-17.067-36.571-36.571-36.571s-36.571 17.067-36.571 36.571v121.905c0 19.505 17.067 36.571 36.571 36.571h585.143c19.505 0 36.571-17.067 36.571-36.571v-877.714c0-19.505-17.067-36.571-36.571-36.571h-585.143c-19.505 0-36.571 17.067-36.571 36.571v121.905c0 19.505 17.067 36.571 36.571 36.571s36.571-17.067 36.571-36.571v-85.333h512v804.571h-512zM146.286 413.867l117.029-119.467c17.067-17.067 17.067-43.886 0-60.952s-43.886-17.067-58.514 0c0 0 0 0 0 0l-190.171 192.61c-17.067 17.067-17.067 43.886 0 60.952l190.171 192.61c17.067 17.067 43.886 17.067 58.514 0 0 0 0 0 0 0 17.067-17.067 17.067-43.886 0-60.952l-117.029-119.467h548.571c0 0 36.571-7.314 36.571-43.886s-36.571-43.886-36.571-43.886l-548.571 2.438z" />
<glyph unicode="&#xe919;" glyph-name="pencil" d="M6.409-57.575c6.56-6.56 16.532-8.397 25.235-4.111l233.325 116.636-145.987 146.024-116.684-233.316c-4.199-8.44-2.537-18.587 4.111-25.234zM945.616 726.947l46.403 46.401c42.641 42.64 42.641 112 0 154.596-20.687 20.598-48.108 32.056-77.323 32.056s-56.68-11.458-77.323-32.056l-46.403-46.357 154.646-154.64zM300.188 81.588l614.517 614.449-154.646 154.596-614.473-614.449 154.602-154.596z" />
<glyph unicode="&#xe925;" glyph-name="bank" d="M658.773 565.76c-5.12-6.827-13.653-8.533-20.48-3.413-39.253 30.72-88.747 44.373-139.947 40.96-8.533 0-15.36 5.12-15.36 13.653s5.12 15.36 13.653 15.36c58.027 3.413 114.347-13.653 158.72-47.787 6.827-3.413 8.533-11.947 3.413-18.773zM332.8 470.187c-17.067 0-30.72 13.653-30.72 30.72s13.653 30.72 30.72 30.72c17.067 0 30.72-13.653 30.72-30.72s-13.653-30.72-30.72-30.72zM855.040 529.92c-8.533 0-15.36-6.827-15.36-15.36 0-20.48-13.653-37.547-30.72-42.667-11.947 153.6-182.613 267.947-363.52 232.107-35.84 51.2-102.4 66.56-157.013 35.84-10.24-5.12-10.24-20.48 0-25.6 20.48-11.947 35.84-32.427 42.667-56.32-59.733-39.253-98.987-95.573-112.64-157.013h-49.493c-8.533-1.707-15.36-8.533-15.36-17.067v-119.467c0-8.533 6.827-15.36 15.36-15.36h71.68c25.6-49.493 69.973-88.747 122.88-116.053v-95.573c0-8.533 6.827-15.36 15.36-15.36s15.36 6.827 15.36 15.36v81.92c78.507-29.013 163.84-27.307 238.933 0v-81.92c0-8.533 6.827-15.36 15.36-15.36s15.36 6.827 15.36 15.36v95.573c85.333 42.667 143.36 119.467 148.48 208.213 34.133 6.827 59.733 37.547 59.733 73.387-1.707 8.533-8.533 15.36-17.067 15.36z" />
<glyph unicode="&#xe926;" glyph-name="mail" d="M162.133 492.373l682.667 279.893-433.493-402.773-247.467 95.573c-6.827 1.707-10.24 6.827-10.24 13.653 0 5.12 3.413 11.947 8.533 13.653zM426.667 340.48l447.147 414.72-119.467-546.133c-1.707-5.12-3.413-8.533-8.533-10.24-3.413-1.707-8.533-1.707-13.653 0l-180.907 98.987-98.987-167.253c-3.413-5.12-6.827-6.827-13.653-6.827-8.533 0-15.36 6.827-15.36 15.36l3.413 201.387z" />
<glyph unicode="&#xe927;" glyph-name="NEI" d="M824.32 180.053c8.533-20.48 0-42.667-20.48-52.907-20.48-8.533-44.373 0-52.907 20.48-37.547 88.747-129.707 145.067-230.4 145.067-104.107 0-196.267-56.32-232.107-145.067-6.827-15.36-20.48-23.893-37.547-23.893-5.12 0-10.24 1.707-15.36 3.413-20.48 8.533-30.72 32.427-22.187 51.2 49.493 117.76 168.96 194.56 305.493 194.56 134.827 0 254.293-75.093 305.493-192.853zM242.347 628.907l-34.133-10.24c-22.187-6.827-46.080 5.12-52.907 27.307s5.12 46.080 27.307 52.907l168.96 54.613c22.187 6.827 46.080-5.12 52.907-27.307 6.827-20.48-3.413-40.96-20.48-49.493 30.72-32.427 30.72-83.627-1.707-114.347-32.427-32.427-83.627-32.427-116.053 0-18.773 15.36-27.307 40.96-23.893 66.56zM868.693 645.973c-6.827-22.187-30.72-34.133-52.907-27.307l-34.133 10.24c3.413-23.893-5.12-49.493-23.893-68.267-32.427-32.427-83.627-32.427-116.053 0-32.427 30.72-32.427 81.92-1.707 114.347-17.067 8.533-27.307 30.72-20.48 49.493 6.827 22.187 30.72 34.133 52.907 27.307l168.96-54.613c22.187-5.12 34.133-29.013 27.307-51.2z" />
<glyph unicode="&#xe928;" glyph-name="quill" d="M153.6 104.96c6.827 92.16 56.32 145.067 150.187 160.427v32.427h-15.36c-8.533 0-15.36 6.827-15.36 15.36v59.733c0 8.533 6.827 15.36 15.36 15.36h150.187c8.533 0 15.36-6.827 13.653-15.36v-59.733c0-8.533-6.827-15.36-13.653-15.36h-15.36v-32.427c95.573-17.067 145.067-68.267 151.893-160.427 0-3.413-1.707-8.533-3.413-11.947-3.413-1.707-8.533-3.413-11.947-3.413h-390.827c-3.413 0-8.533 1.707-10.24 5.12-3.413 3.413-5.12 6.827-5.12 10.24zM849.92 794.453c0-1.707 0-1.707 0 0 30.72-34.133 27.307-92.16-11.947-158.72-3.413-5.12-6.827-6.827-13.653-6.827h-121.173l-30.72-29.013h107.52c8.533 0 15.36-6.827 15.36-15.36s-6.827-15.36-15.36-15.36h-138.24l-27.307-32.427h122.88c6.827 0 11.947-3.413 13.653-10.24 1.707-5.12 0-11.947-3.413-17.067-56.32-51.2-117.76-78.507-168.96-78.507-20.48 0-39.253 5.12-54.613 15.36l-37.547-37.547c-5.12-5.12-15.36-5.12-20.48 0s-5.12 15.36 0 20.48l37.547 37.547c-30.72 51.2 8.533 150.187 98.987 240.64 46.080 46.080 97.28 80.213 128 95.573 5.12 1.707 10.24 1.707 15.36 0 3.413-1.707 5.12-6.827 5.12-11.947v-75.093l76.8 76.8c6.827 6.827 15.36 6.827 22.187 1.707z" />
<glyph unicode="&#xe92a;" glyph-name="YAY" d="M215.040 680.107c-3.413 3.413-3.413 6.827-1.707 10.24s3.413 6.827 8.533 6.827l64.853 10.24 29.013 61.44c1.707 3.413 5.12 5.12 8.533 5.12s6.827-1.707 8.533-5.12l29.013-61.44 64.853-10.24c3.413 0 6.827-3.413 8.533-6.827s0-6.827-1.707-10.24l-46.080-47.787 10.24-66.56c0-3.413-1.707-6.827-3.413-10.24-1.707-1.707-3.413-1.707-5.12-1.707s-3.413 0-5.12 1.707l-58.027 30.72-56.32-30.72c-3.413-1.707-6.827-1.707-10.24 0s-5.12 5.12-3.413 10.24l10.24 66.56-51.2 47.787zM607.573 680.107c-3.413 3.413-3.413 6.827-1.707 10.24s3.413 6.827 8.533 6.827l64.853 10.24 29.013 61.44c1.707 3.413 5.12 5.12 8.533 5.12s6.827-1.707 8.533-5.12l29.013-61.44 64.853-10.24c3.413 0 6.827-3.413 8.533-6.827s0-6.827-1.707-10.24l-46.080-47.787 10.24-66.56c0-3.413-1.707-6.827-3.413-10.24-1.707-1.707-3.413-1.707-5.12-1.707s-3.413 0-5.12 1.707l-58.027 30.72-56.32-30.72c-3.413-1.707-6.827-1.707-10.24 0s-5.12 5.12-3.413 10.24l10.24 66.56-51.2 47.787zM866.987 352.427c3.413-5.12 5.12-11.947 1.707-18.773-59.733-138.24-199.68-226.987-354.987-226.987-160.427 0-300.373 88.747-358.4 226.987-3.413 6.827-1.707 13.653 1.707 18.773s10.24 8.533 17.067 8.533v0h677.547c5.12 0 11.947-3.413 15.36-8.533z" />
</font>
</defs>
</svg>
