<?xml version="1.0" encoding="UTF-8" standalone="no"?>
<svg width="13px" height="14px" viewBox="0 0 13 14" version="1.1" xmlns="http://www.w3.org/2000/svg" xmlns:xlink="http://www.w3.org/1999/xlink" xmlns:sketch="http://www.bohemiancoding.com/sketch/ns">
    <!-- Generator: Sketch 3.4.3 (16044) - http://www.bohemiancoding.com/sketch -->
    <title>Icon / Calendar</title>
    <desc>Created with Sketch.</desc>
    <defs></defs>
    <g id="Innlesing" stroke="none" stroke-width="1" fill="none" fill-rule="evenodd" sketch:type="MSPage">
        <g id="Innlesing:-Kontroll-Oversikt" sketch:type="MSArtboardGroup" transform="translate(-714.000000, -205.000000)" fill="#A5A4AB">
            <g id="Group" sketch:type="MSLayerGroup" transform="translate(250.000000, 185.000000)">
                <g id="Date-Picker-/-Default-Copy" transform="translate(291.000000, 11.000000)" sketch:type="MSShapeGroup">
                    <g id="Icon-/-Calendar" transform="translate(173.000000, 9.000000)">
                        <path d="M11.9768577,2.08595143 C11.4248818,2.08595143 10.977417,1.64526584 10.977417,1.09311405 C10.977417,0.544785106 10.5272137,0.10027667 9.97386278,0.10027667 L9.0167378,0.10027667 C8.46249012,0.10027667 8.01318359,0.540962257 8.01318359,1.09311405 C8.01318359,1.64144299 7.56728112,2.08595143 7.00691046,2.08595143 L5.99748407,2.08595143 C5.44173477,2.08595143 4.99121094,1.63707216 4.99121094,1.09558384 L4.99121094,1.14094058 C4.99121094,0.593975669 4.54071105,0.150572997 3.98699549,0.150572997 L3.02923986,0.150572997 C2.47462698,0.150572997 2.02502441,0.599452272 2.02502441,1.14094058 L2.02502441,1.09558384 C2.02502441,1.64254876 1.57560586,2.08595143 1.02437734,2.08595143 L1.00064707,2.08595143 C0.448004954,2.08595143 0,2.53844794 0,3.08124439 L0,13.004707 C0,13.5543922 0.447489426,14 0.998502329,14 L12.0014977,14 C12.5529553,14 13,13.5475035 13,13.004707 L13,3.08124439 C13,2.53155927 12.5511233,2.08595143 12.0005593,2.08595143 L11.9768577,2.08595143 Z M1,5 L1,13 L12,13 L12,5 L1,5 Z M9,1 L9,4 L10,4 L10,1 L9,1 Z M3,1 L3,4 L4,4 L4,1 L3,1 Z" id="Outline"></path>
                        <path d="M9,11 L7,11 L7,12.5 L7,13 L6,13 L6,12.5 L6,11 L4,11 L4,12.5 L4,13 L3,13 L3,12.5 L3,11 L1.5,11 L1,11 L1,10 L1.5,10 L3,10 L3,8 L1.5,8 L1,8 L1,7 L1.5,7 L3,7 L3,5.5 L3,5 L4,5 L4,5.5 L4,7 L6,7 L6,5.5 L6,5 L7,5 L7,5.5 L7,7 L9,7 L9,5.5 L9,5 L10,5 L10,5.5 L10,7 L11.5,7 L12,7 L12,8 L11.5,8 L10,8 L10,10 L11.5,10 L12,10 L12,11 L11.5,11 L10,11 L10,12.5 L10,13 L9,13 L9,12.5 L9,11 Z M9,10 L7,10 L7,8 L9,8 L9,10 Z M6,8 L4,8 L4,10 L6,10 L6,8 Z" id="Line"></path>
                    </g>
                </g>
            </g>
        </g>
    </g>
</svg>