<?xml version="1.0" encoding="utf-8"?>
<!-- Generator: Adobe Illustrator 18.0.0, SVG Export Plug-In . SVG Version: 6.00 Build 0)  -->
<!DOCTYPE svg PUBLIC "-//W3C//DTD SVG 1.1//EN" "http://www.w3.org/Graphics/SVG/1.1/DTD/svg11.dtd">
<svg version="1.1" id="Layer_1" xmlns:sketch="http://www.bohemiancoding.com/sketch/ns"
	 xmlns="http://www.w3.org/2000/svg" xmlns:xlink="http://www.w3.org/1999/xlink" x="0px" y="0px" viewBox="0 0 14 14"
	 enable-background="new 0 0 14 14" xml:space="preserve">
<title>Cross</title>
<desc>Created with Sketch.</desc>
<g id="Innlesing" sketch:type="MSPage">
	<g id="Desktop-HD" transform="translate(-833.000000, -211.000000)" sketch:type="MSArtboardGroup">
		<g id="Group" transform="translate(340.000000, 187.000000)" sketch:type="MSLayerGroup">
			<g id="Stroke-772-_x2B_-Stroke-773" transform="translate(318.000000, 22.000000)" sketch:type="MSShapeGroup">
				<g transform="translate(176.000000, 3.000000)">
					<g id="Cross">
						<g id="Stroke-772">
							<path fill="#ED6B6A" d="M12,13c-0.3,0-0.5-0.1-0.7-0.3l-12-12c-0.4-0.4-0.4-1,0-1.4s1-0.4,1.4,0l12,12c0.4,0.4,0.4,1,0,1.4
								C12.5,12.9,12.3,13,12,13z"/>
						</g>
						<g id="Stroke-773">
							<path fill="#ED6B6A" d="M0,13c-0.3,0-0.5-0.1-0.7-0.3c-0.4-0.4-0.4-1,0-1.4l12-12c0.4-0.4,1-0.4,1.4,0s0.4,1,0,1.4l-12,12
								C0.5,12.9,0.3,13,0,13z"/>
						</g>
					</g>
				</g>
			</g>
		</g>
	</g>
</g>
</svg>
