<svg width="14" height="14" viewBox="0 0 14 14" fill="none" xmlns="http://www.w3.org/2000/svg">
<path d="M13.4167 9.39264C13.0941 9.39264 12.8333 9.6386 12.8333 9.94166V10.9919C12.8333 11.5651 12.3194 12.2926 11.7425 12.2926H2.25692C1.68 12.2926 1.16667 11.5651 1.16667 10.9919V9.94166C1.16667 9.6386 0.905333 9.39264 0.583333 9.39264C0.26075 9.39264 0 9.6386 0 9.94166V10.9919C0 12.124 0.964833 13.3906 2.25692 13.3906H11.7425C13.0346 13.3906 14 12.124 14 10.9919V9.94166C14 9.6386 13.7387 9.39264 13.4167 9.39264Z" fill="#3F3E44"/>
<path d="M6.58694 10.0553C6.79985 10.2601 7.17494 10.2793 7.41235 10.0553L11.4957 6.21271C11.7238 5.99804 11.7238 5.65106 11.4957 5.43639C11.2676 5.22173 10.8984 5.22173 10.6709 5.43639L7.58327 8.34235V0.54902C7.58327 0.245961 7.32194 0 6.99994 0C6.67735 0 6.4166 0.245961 6.4166 0.54902V8.34235L3.32903 5.43639C3.10094 5.22173 2.73169 5.22173 2.50419 5.43639C2.27611 5.65106 2.27611 5.99859 2.50419 6.21271L6.58694 10.0553Z" fill="#3F3E44"/>
</svg>
