<?xml version="1.0" encoding="utf-8"?>
<!-- Generator: Adobe Illustrator 18.0.0, SVG Export Plug-In . SVG Version: 6.00 Build 0)  -->
<!DOCTYPE svg PUBLIC "-//W3C//DTD SVG 1.1//EN" "http://www.w3.org/Graphics/SVG/1.1/DTD/svg11.dtd">
<svg version="1.1" id="Layer_1" xmlns="http://www.w3.org/2000/svg" xmlns:xlink="http://www.w3.org/1999/xlink" x="0px" y="0px"
	 width="400px" height="79.5px" viewBox="0 0 400 79.5" enable-background="new 0 0 400 79.5" xml:space="preserve">
<g id="Bakgrunn" display="none">
	<path display="inline" d="M-245,50h890v300h-890V50z"/>
</g>
<g id="Logo">
	<g>
		<path fill="#FFFFFF" d="M349.4,15.9v20.2c0,0.5,1,1.5,1.8,0.6c0.3-0.3,8.6-11.2,13.8-18.1c7.2,4.1,12.2,11.9,12.2,20.8
			c0,13-10.7,23.6-23.8,23.6c-13,0-23.6-10.6-23.6-23.6c0-7.5,3.6-14.3,9.1-18.7V5.1c-13.3,5.7-22.5,18.9-22.5,34.3
			c0,20.7,16.4,37.1,37.1,37.1c20.7,0,37.2-16.4,37.2-37.1S374.1,2.1,353.4,2.1c-1.4,0-2.7,0.1-4.1,0.2V15.9"/>
		<path fill="#FFFFFF" d="M126.3,37.3c5.5,0,10.2-4.8,10.2-10.5c0-5.5-4.8-10-10.2-10h-16.8v20.5H126.3z M95.9,6.3c0-1,0.8-2,2-2
			h29.5c12.4,0,22.5,9.9,22.5,22.2c0,9.5-6.3,17.2-15.3,20.9l14.1,26.2c0.7,1.3,0,3-1.8,3h-10.8c-0.9,0-1.4-0.5-1.7-0.9l-13.7-27.4
			h-11.5v26.3c0,1-0.9,2-2,2h-9.5c-1.1,0-2-0.9-2-2V6.3"/>
		<path fill="#FFFFFF" d="M200.1,51.9l-10.3-22.7h-0.3l-10.1,22.7H200.1z M155.5,73.9l32.1-69.5c0.3-0.6,0.8-1.1,1.8-1.1h1
			c1,0,1.4,0.5,1.8,1.1L224,73.9c0.6,1.3-0.2,2.7-1.8,2.7h-9c-1.5,0-2.3-0.6-3-2.1l-5.1-11.2h-30.9l-5.1,11.2c-0.4,1-1.3,2.1-3,2.1
			h-9C155.7,76.6,154.9,75.3,155.5,73.9"/>
		<path fill="#FFFFFF" d="M245,3.3c0.8,0,1.3,0.4,1.8,1l22.7,48.7c0.2,0,0.2,0,0.3,0l22.7-48.7c0.7-1.3,2.1-1,3.4-1
			c1.1,0,1.8,0.7,1.9,1.5l12.2,69.4c0.3,1.4-0.5,2.4-1.9,2.4h-9.4c-0.9,0-1.8-0.8-2-1.5l-6.1-39.1c-0.1,0-0.3,0-0.3,0l-18.1,40.6
			c-0.4,0.7-0.1,0.3-1.1,1H268c-1-0.7-0.7-0.3-1.1-1l-18.3-40.6c0,0-0.2,0-0.3,0l-6,39.1c-0.1,0.7-0.9,1.5-1.9,1.5h-9.3
			c-1.3,0-2.2-0.9-2-2.4l12.3-69.4c0.1-0.8,0.7-1.5,1.9-1.5H245z"/>
		<path fill="#FFFFFF" d="M46.3,3.3C62.1,3.8,74,11.6,80.7,25.8H65c-4.9-6-11.1-8.6-18.7-9.1C36.1,17,26.8,23.5,23.8,33.4
			c-0.9,2.8-1.4,6.4-0.9,9.4c1.9,12.7,10.7,20.7,23.5,21.3c8.8,0,16.6-4.9,20.8-12.2C60.2,46.8,49.3,38.5,49,38.2
			c-0.9-0.9,0-1.8,0.6-1.8h33.8c1.6,14.9-6,29.7-19.2,36.8c-5.9,3.2-12.3,4.4-18.9,4.4c-15.7-0.4-29.7-10.9-34.3-26
			c-1.6-5.1-1.5-8.3-1.5-13.3c0.5-12.7,8.1-24.5,19.2-30.5c5.8-3.1,7.6-3,13.9-4.2L46.3,3.3z"/>
	</g>
</g>
</svg>
