<?xml version="1.0" encoding="utf-8"?>
<!-- Generator: Adobe Illustrator 18.0.0, SVG Export Plug-In . SVG Version: 6.00 Build 0)  -->
<!DOCTYPE svg PUBLIC "-//W3C//DTD SVG 1.1//EN" "http://www.w3.org/Graphics/SVG/1.1/DTD/svg11.dtd">
<svg version="1.1" id="Layer_1" xmlns:sketch="http://www.bohemiancoding.com/sketch/ns"
	 xmlns="http://www.w3.org/2000/svg" xmlns:xlink="http://www.w3.org/1999/xlink" x="0px" y="0px" viewBox="0 0 64 66"
	 enable-background="new 0 0 64 66" xml:space="preserve">
<title>Logo Echo</title>
<desc>Created with Sketch.</desc>
<g id="Login" sketch:type="MSPage">
	<g id="Desktop-HD-Steg-1" transform="translate(-688.000000, -126.000000)" sketch:type="MSArtboardGroup">
		<g id="Logo-Echo" transform="translate(687.000000, 127.000000)" sketch:type="MSLayerGroup">
			<g enable-background="new    ">
				<g>
					<path fill="#504F56" d="M3.3,45.9h9.8v1.8H5.5v5.4H12V55H5.5v6.2h7.9V63H3.3V45.9z"/>
				</g>
				<g>
					<path fill="#504F56" d="M23.6,45.6c2.1,0,3.7,1,4.7,2.1l-1.2,1.4c-0.9-1-2-1.6-3.4-1.6c-3.2,0-5.4,2.7-5.4,6.9
						c0,4.3,2.1,7,5.3,7c1.6,0,2.8-0.7,3.9-1.9l1.2,1.3c-1.4,1.6-3,2.5-5.2,2.5c-4.3,0-7.5-3.3-7.5-8.8C16.1,49,19.3,45.6,23.6,45.6
						z"/>
				</g>
				<g>
					<path fill="#504F56" d="M31.9,45.9H34v7.2H42v-7.2h2.2V63H42v-8H34v8h-2.2V45.9z"/>
				</g>
				<g>
					<path fill="#504F56" d="M47.9,54.4c0-5.5,3-8.8,7.3-8.8s7.3,3.3,7.3,8.8c0,5.5-3,8.9-7.3,8.9S47.9,59.9,47.9,54.4z M60.2,54.4
						c0-4.2-2-6.9-5-6.9s-5,2.6-5,6.9c0,4.3,2,7,5,7S60.2,58.7,60.2,54.4z"/>
				</g>
			</g>
			<g id="Group" transform="translate(16.000000, 0.000000)" sketch:type="MSShapeGroup">
				<g id="Stroke-6961">
					<path fill="#504F56" d="M12,31c-0.6,0-1-0.4-1-1V5c0-0.6,0.4-1,1-1s1,0.4,1,1v25C13,30.6,12.6,31,12,31z"/>
				</g>
				<g id="Stroke-6962">
					<path fill="#504F56" d="M16,35c-0.6,0-1-0.4-1-1V0c0-0.6,0.4-1,1-1s1,0.4,1,1v34C17,34.6,16.6,35,16,35z"/>
				</g>
				<g id="Stroke-6963">
					<path fill="#504F56" d="M20,30c-0.6,0-1-0.4-1-1V4c0-0.6,0.4-1,1-1s1,0.4,1,1v25C21,29.6,20.6,30,20,30z"/>
				</g>
				<g id="Stroke-6964">
					<path fill="#504F56" d="M24,25.9c-0.6,0-1-0.4-1-1V11c0-0.6,0.4-1,1-1s1,0.4,1,1v13.9C25,25.5,24.6,25.9,24,25.9z"/>
				</g>
				<g id="Stroke-6965">
					<path fill="#504F56" d="M8,25.9c-0.6,0-1-0.4-1-1V11c0-0.6,0.4-1,1-1s1,0.4,1,1v13.9C9,25.5,8.6,25.9,8,25.9z"/>
				</g>
				<g id="Stroke-6966">
					<path fill="#504F56" d="M28,24.1c-0.6,0-1-0.4-1-1V12c0-0.6,0.4-1,1-1s1,0.4,1,1v11.1C29,23.7,28.6,24.1,28,24.1z"/>
				</g>
				<g id="Stroke-6967">
					<path fill="#504F56" d="M4,24.1c-0.6,0-1-0.4-1-1V12c0-0.6,0.4-1,1-1s1,0.4,1,1v11.1C5,23.7,4.6,24.1,4,24.1z"/>
				</g>
				<g id="Stroke-6968">
					<path fill="#504F56" d="M0,19.8c-0.6,0-1-0.4-1-1V16c0-0.6,0.4-1,1-1s1,0.4,1,1v2.8C1,19.3,0.6,19.8,0,19.8z"/>
				</g>
				<g id="Stroke-6969">
					<path fill="#504F56" d="M32,19.8c-0.6,0-1-0.4-1-1V16c0-0.6,0.4-1,1-1s1,0.4,1,1v2.8C33,19.3,32.6,19.8,32,19.8z"/>
				</g>
			</g>
		</g>
	</g>
</g>
</svg>
