<?xml version="1.0" encoding="utf-8"?>
<!-- Generator: Adobe Illustrator 18.0.0, SVG Export Plug-In . SVG Version: 6.00 Build 0)  -->
<!DOCTYPE svg PUBLIC "-//W3C//DTD SVG 1.1//EN" "http://www.w3.org/Graphics/SVG/1.1/DTD/svg11.dtd">
<svg version="1.1" id="Layer_1" xmlns:sketch="http://www.bohemiancoding.com/sketch/ns"
	 xmlns="http://www.w3.org/2000/svg" xmlns:xlink="http://www.w3.org/1999/xlink" x="0px" y="0px" viewBox="0 0 17 16"
	 enable-background="new 0 0 17 16" xml:space="preserve">
<title>Search</title>
<desc>Created with sketchtool.</desc>
<g id="Innlesing" sketch:type="MSPage">
	<g id="Innlesing:-Program-Admin" transform="translate(-390.000000, -278.000000)" sketch:type="MSArtboardGroup">
		<g id="Dropdown_x2F_search" transform="translate(260.000000, 232.000000)" sketch:type="MSLayerGroup">
			<g id="Rectangle-200-_x2B_-Søk-_x2B_-Search" transform="translate(5.000000, 41.000000)" sketch:type="MSShapeGroup">
				<path id="Search" fill="#A5A4AB" d="M136.3,17.6c-1.2,0.9-2.7,1.4-4.3,1.4c-3.9,0-7-3.1-7-7s3.1-7,7-7c3.9,0,7,3.1,7,7
					c0,1.5-0.5,2.9-1.2,4l3.5,3.5l-1.6,1.6L136.3,17.6z M132,17c2.8,0,5-2.2,5-5s-2.2-5-5-5c-2.8,0-5,2.2-5,5S129.3,17,132,17z"/>
			</g>
		</g>
	</g>
</g>
</svg>
